<?xml version="1.0" standalone="no"?>
<!DOCTYPE svg PUBLIC "-//W3C//DTD SVG 20010904//EN"
 "http://www.w3.org/TR/2001/REC-SVG-20010904/DTD/svg10.dtd">
<svg version="1.0" xmlns="http://www.w3.org/2000/svg"
 width="3000.000000pt" height="3000.000000pt" viewBox="0 0 3000.000000 3000.000000"
 preserveAspectRatio="xMidYMid meet">
<metadata>
Created by potrace 1.11, written by Peter Selinger 2001-2013
</metadata>
<g transform="translate(0.000000,3000.000000) scale(0.100000,-0.100000)"
fill="#000000" stroke="none">
<path d="M14446 28489 c-2950 -122 -5708 -1173 -8007 -3049 -375 -306 -833
-729 -1155 -1066 -210 -220 -304 -321 -304 -329 0 -2 19 -35 41 -72 110 -178
201 -398 215 -516 l7 -56 41 5 c51 7 108 -14 131 -50 20 -31 42 -112 51 -188
4 -32 9 -58 13 -58 6 1 106 141 152 212 13 21 26 38 29 38 7 0 31 -65 111
-304 38 -115 72 -212 74 -217 3 -4 24 1 47 11 35 16 49 32 93 109 46 79 106
205 203 423 l30 67 104 -35 c141 -47 218 -91 241 -136 10 -21 22 -77 27 -130
5 -51 18 -149 29 -218 l21 -125 -43 -43 c-97 -99 -219 -149 -336 -138 -62 5
-181 39 -230 65 -11 7 -21 10 -21 7 0 -2 22 -51 49 -110 l50 -105 -22 -28
c-114 -150 -315 -334 -427 -392 -106 -56 -180 -112 -283 -217 -225 -229 -398
-526 -401 -685 -1 -63 1 -68 44 -123 25 -32 91 -122 147 -200 56 -77 110 -151
120 -163 10 -11 68 -40 128 -63 61 -23 337 -136 615 -252 l506 -210 18 -51
c25 -73 267 -691 272 -696 9 -9 120 69 160 113 83 92 91 179 35 380 -17 58
-31 127 -33 153 l-3 46 85 61 c47 34 122 96 167 140 142 135 174 236 114 361
-29 60 -117 171 -158 200 l-23 16 0 419 0 419 58 8 c90 13 260 8 344 -10 166
-35 352 -124 501 -237 70 -54 75 -61 154 -210 45 -85 112 -219 150 -297 l68
-143 52 0 52 0 65 94 c64 92 208 275 272 348 l34 38 25 -50 c14 -27 83 -179
155 -339 259 -580 269 -593 645 -846 121 -81 232 -159 247 -173 80 -75 53
-225 -64 -357 -49 -54 -50 -55 -106 -55 -83 0 -118 -14 -176 -68 -135 -127
-304 -169 -512 -126 -177 37 -369 2 -524 -94 -78 -49 -300 -255 -288 -268 8
-7 26 0 203 79 115 51 174 67 243 67 58 0 170 -32 202 -58 l22 -18 -57 -52
c-31 -29 -77 -64 -101 -78 -24 -14 -44 -29 -43 -32 0 -4 18 -29 40 -57 21 -27
67 -90 100 -140 76 -111 104 -142 151 -166 64 -33 108 -26 225 37 l106 57 18
-24 c21 -27 44 -78 38 -83 -16 -14 -285 -181 -410 -254 -280 -163 -281 -163
-315 -150 l-30 11 53 130 c29 72 59 137 66 145 10 13 3 14 -62 8 -154 -15
-329 -83 -454 -178 -66 -49 -142 -139 -179 -211 -25 -50 -50 -169 -47 -226 l3
-43 -74 -19 c-142 -36 -241 -120 -365 -311 -37 -56 -99 -147 -137 -200 -95
-133 -109 -176 -107 -336 2 -226 -50 -318 -276 -488 -412 -308 -501 -565 -340
-978 46 -119 60 -194 70 -371 4 -60 9 -117 11 -126 3 -12 -10 -20 -56 -32 -33
-9 -62 -17 -65 -17 -8 0 -94 177 -139 289 -52 127 -82 220 -92 281 -26 172
-109 239 -262 212 -69 -12 -103 -6 -223 39 -56 21 -104 32 -144 33 -55 1 -66
-3 -127 -42 -37 -24 -113 -61 -170 -84 l-103 -40 -105 27 c-328 85 -558 9
-665 -217 -43 -90 -62 -178 -71 -323 -3 -60 -17 -161 -30 -222 -28 -130 -30
-232 -9 -353 30 -173 77 -324 153 -498 50 -116 73 -140 166 -172 85 -29 143
-34 257 -20 203 23 266 70 314 234 35 125 95 211 164 238 66 26 301 -6 301
-40 0 -9 -9 -46 -20 -81 -12 -36 -61 -214 -111 -395 -49 -182 -92 -339 -95
-348 -5 -15 17 -17 263 -20 265 -3 269 -3 318 -28 71 -37 99 -94 104 -213 1
-49 -2 -123 -8 -165 -47 -326 -28 -442 89 -566 86 -92 225 -132 291 -86 87 62
189 79 270 43 24 -11 69 -41 99 -66 l54 -45 27 21 c15 12 71 61 125 108 123
106 510 437 542 463 23 18 24 18 48 -5 30 -28 30 -48 -1 -123 -13 -33 -23 -61
-22 -62 1 -1 49 9 107 22 72 17 126 24 170 21 61 -3 71 -7 162 -69 137 -93
208 -120 333 -126 99 -4 117 -2 261 40 33 9 48 9 75 -3 41 -16 148 -109 329
-284 208 -202 392 -353 477 -392 28 -13 75 -28 105 -33 263 -44 328 -71 449
-187 145 -139 206 -253 250 -466 34 -163 74 -255 130 -300 23 -17 75 -39 139
-58 128 -37 213 -76 393 -180 274 -159 394 -204 581 -215 66 -5 113 -13 136
-24 53 -27 175 -123 260 -206 82 -79 122 -103 220 -130 90 -24 122 -39 145
-64 19 -21 19 -24 1 -188 -22 -203 -54 -333 -101 -419 -20 -36 -91 -140 -159
-232 -167 -227 -233 -330 -245 -382 -5 -24 -9 -127 -9 -229 0 -214 -15 -337
-68 -540 -67 -255 -188 -523 -272 -602 -70 -66 -123 -93 -262 -133 -203 -59
-307 -120 -424 -246 -108 -117 -186 -295 -216 -494 -15 -101 -48 -186 -118
-300 -31 -49 -73 -121 -95 -158 -23 -38 -82 -113 -132 -166 -89 -96 -92 -101
-129 -207 -87 -250 -165 -372 -268 -423 -54 -27 -71 -31 -147 -31 -84 0 -218
24 -314 56 -26 9 -52 14 -58 12 -5 -2 26 -59 70 -126 86 -132 121 -210 121
-270 0 -87 -99 -209 -232 -287 -34 -20 -126 -65 -205 -101 -79 -35 -156 -72
-170 -81 -25 -17 -26 -16 -50 11 -13 16 -25 27 -27 25 -2 -2 -11 -56 -20 -119
-32 -209 -62 -239 -249 -248 -59 -3 -100 -9 -103 -16 -2 -6 -21 -136 -43 -288
-22 -153 -47 -290 -55 -305 -8 -16 -52 -63 -99 -106 -75 -67 -137 -142 -126
-151 34 -26 488 -260 717 -370 1826 -871 3787 -1315 5817 -1316 1835 0 3630
364 5300 1077 2758 1178 5048 3242 6511 5870 1119 2009 1704 4283 1692 6583
-1 173 -3 299 -4 280 -2 -19 -9 -91 -14 -160 -23 -263 -59 -467 -151 -841
l-60 -245 -118 -130 c-64 -71 -177 -185 -250 -254 -104 -98 -144 -144 -187
-213 -80 -128 -94 -171 -94 -278 0 -258 -46 -493 -129 -664 -60 -123 -220
-341 -233 -319 -17 27 -267 640 -322 787 -189 507 -286 961 -286 1341 l0 109
-49 -65 c-60 -79 -100 -114 -142 -123 -44 -10 -108 33 -191 129 l-68 79 27 18
c58 37 78 58 68 68 -6 6 -60 43 -120 83 -111 74 -137 101 -198 208 -18 30 -51
69 -75 87 -75 57 -114 63 -416 63 -308 1 -443 11 -533 41 -34 11 -152 65 -262
119 l-200 99 -50 -20 c-107 -40 -243 -18 -356 57 -99 65 -218 220 -250 326
-30 101 -53 119 -165 140 -112 21 -161 -16 -168 -125 -3 -60 -1 -66 70 -207
86 -170 228 -420 239 -420 5 0 20 16 35 35 14 19 30 35 34 35 16 0 39 -70 60
-187 15 -84 26 -123 35 -123 29 0 254 70 316 98 44 20 76 43 95 67 16 20 36
46 45 57 15 20 17 19 90 -43 98 -83 315 -300 367 -367 85 -108 77 -165 -41
-321 -41 -53 -116 -154 -168 -226 -159 -221 -232 -287 -539 -492 -158 -105
-359 -229 -663 -409 -120 -71 -237 -141 -261 -155 -66 -41 -306 -130 -311
-116 -32 88 -48 149 -60 232 -48 344 -161 665 -302 858 -68 92 -161 195 -184
202 -30 10 -47 53 -58 157 -21 187 -81 324 -270 611 -66 100 -141 220 -168
267 l-48 85 -107 55 -107 55 -31 -30 c-17 -16 -33 -39 -36 -50 -6 -23 45 -137
221 -500 159 -329 215 -459 236 -556 21 -95 32 -128 114 -319 30 -69 66 -174
80 -235 49 -210 126 -330 379 -595 200 -209 224 -241 284 -377 58 -131 82
-167 125 -190 52 -27 147 -21 252 16 229 82 389 131 487 152 60 12 110 20 113
18 2 -3 0 -67 -5 -142 l-9 -138 -101 -237 c-263 -617 -422 -871 -691 -1111
-268 -239 -488 -567 -676 -1006 -38 -90 -38 -90 -37 -225 0 -127 3 -146 48
-320 75 -294 124 -591 146 -880 14 -192 13 -256 -7 -297 -24 -52 -267 -305
-427 -446 -157 -138 -221 -210 -236 -269 -19 -69 -7 -201 29 -333 62 -223 45
-352 -60 -450 -45 -42 -137 -95 -165 -95 -17 0 -73 -67 -78 -93 -3 -12 -7 -78
-9 -147 -12 -311 -140 -544 -537 -971 -134 -144 -139 -146 -595 -289 -113 -35
-352 -80 -465 -87 -65 -4 -81 -1 -120 20 -56 30 -104 92 -124 160 -9 28 -41
156 -72 282 -59 242 -137 486 -261 820 -118 314 -220 616 -268 790 -59 217
-97 319 -166 455 -75 147 -101 242 -101 380 -1 141 22 253 93 461 95 274 130
399 131 459 2 103 -161 773 -232 958 -33 86 -48 108 -153 229 -145 165 -207
324 -207 533 0 106 9 173 45 336 40 178 31 288 -26 328 -43 30 -124 46 -272
54 -142 8 -147 9 -183 38 -23 18 -41 45 -49 69 -29 96 -87 170 -157 199 -52
22 -159 20 -248 -5 -40 -11 -137 -50 -214 -85 -205 -95 -301 -126 -416 -132
-68 -3 -113 0 -158 12 -82 21 -129 22 -113 2 10 -11 -3 -19 -74 -45 -192 -69
-305 -57 -432 45 -23 19 -77 80 -121 137 -43 56 -147 179 -231 272 -84 94
-196 231 -249 305 -53 74 -133 173 -177 220 -94 99 -115 127 -155 209 -69 137
-89 362 -54 586 21 138 20 297 -5 515 -44 391 -43 371 -26 427 19 62 155 365
255 563 168 335 208 388 370 494 120 78 160 114 203 179 50 75 68 137 77 267
9 132 29 194 99 315 38 65 83 117 249 283 l203 203 58 -20 c91 -31 186 -44
275 -37 101 8 151 21 296 79 168 67 256 91 650 174 l355 75 170 -2 c217 -1
244 -5 256 -37 11 -29 12 -423 1 -439 -4 -6 -22 -19 -39 -29 -18 -11 -33 -22
-33 -25 0 -7 251 -97 395 -141 123 -38 191 -66 230 -94 17 -12 63 -41 104 -64
40 -24 127 -78 192 -121 148 -96 221 -135 242 -127 33 12 96 107 118 179 50
157 156 228 298 197 29 -6 132 -44 228 -85 290 -123 539 -199 718 -218 113
-13 505 42 557 78 57 39 91 103 131 247 39 143 169 709 165 719 -2 4 -82 -20
-178 -52 l-175 -58 -205 -4 -205 -4 -103 39 c-282 105 -404 221 -447 424 -8
39 -15 87 -15 108 0 66 -30 176 -57 207 -47 56 -127 37 -261 -62 -50 -37 -65
-43 -119 -46 -35 -3 -63 -7 -63 -10 0 -3 41 -80 91 -169 59 -107 89 -169 85
-181 -12 -31 -171 -262 -181 -262 -5 0 -28 10 -50 23 -52 29 -63 54 -215 459
-67 177 -138 355 -158 393 -36 66 -47 77 -187 183 -212 160 -457 357 -543 435
-75 70 -93 77 -128 52 -51 -35 -67 -127 -39 -222 13 -44 31 -66 148 -179 123
-120 566 -515 644 -576 20 -15 38 -30 42 -34 7 -8 -111 5 -150 16 -27 8 -27 7
-127 -199 -55 -113 -123 -259 -153 -324 -52 -116 -53 -117 -73 -99 -37 34
-111 80 -215 135 l-102 54 48 7 c26 4 71 15 98 25 188 69 294 110 317 122 l26
14 -63 130 c-62 128 -65 132 -228 306 -158 169 -410 411 -510 490 -54 43 -114
57 -177 41 -22 -5 -82 -35 -135 -67 -162 -97 -251 -115 -365 -75 -72 25 -91
25 -148 -4 -71 -36 -82 -52 -72 -105 5 -30 4 -62 -5 -95 -16 -61 -74 -119
-179 -180 -125 -73 -208 -198 -246 -371 -59 -274 -136 -354 -394 -415 -45 -10
-121 -35 -170 -54 l-90 -36 -105 49 c-58 27 -158 74 -222 105 l-116 55 -6 257
c-4 142 -7 382 -7 534 l0 278 368 6 c353 7 513 20 562 46 20 11 25 33 40 185
12 118 7 199 -16 282 -19 69 -75 125 -230 230 -117 80 -234 186 -221 199 4 4
65 10 137 14 118 7 134 10 168 34 92 65 139 99 158 117 11 11 63 33 115 51
l94 31 268 268 c147 147 286 281 310 297 23 16 128 78 232 137 105 60 214 124
244 143 l54 34 -6 57 c-3 31 -22 106 -42 166 -65 192 -58 276 31 354 39 34
170 98 180 88 2 -2 10 -84 18 -183 25 -297 25 -296 8 -289 -7 3 -25 8 -38 11
-21 5 -24 3 -24 -22 1 -24 14 -39 83 -90 104 -78 140 -96 173 -88 14 4 112 1
217 -6 270 -18 373 3 475 94 22 20 55 41 73 46 29 9 36 6 69 -24 70 -63 128
-57 233 23 34 26 71 53 83 59 17 9 23 33 43 164 21 146 70 419 77 426 3 4 140
-98 217 -161 48 -39 49 -40 88 -27 40 14 40 14 33 54 -3 23 -27 125 -53 227
l-46 186 315 52 c173 28 339 54 368 58 l52 6 0 53 c0 30 -3 54 -7 54 -5 0 -75
7 -158 15 -173 18 -202 15 -345 -33 -86 -29 -121 -36 -190 -36 -49 -1 -102 5
-124 13 -90 32 -161 134 -191 278 -19 87 -19 135 0 206 33 128 98 216 277 374
63 56 146 137 183 179 l69 76 -35 29 c-63 52 -147 91 -210 96 -132 12 -212
-42 -285 -195 -86 -181 -170 -287 -321 -403 -117 -91 -153 -137 -185 -242 -16
-53 -19 -86 -16 -142 7 -101 43 -166 124 -220 l60 -40 -68 -180 c-172 -454
-212 -548 -250 -587 -44 -44 -196 -120 -287 -143 -36 -9 -90 -15 -122 -13
l-56 3 -16 -45 c-9 -25 -31 -77 -48 -115 -26 -58 -33 -67 -40 -50 -4 11 -23
57 -42 101 l-34 82 71 51 c39 29 86 65 105 81 l34 29 -63 156 c-35 86 -98 225
-139 310 l-76 153 -145 -109 c-270 -203 -317 -217 -406 -125 -30 32 -46 61
-63 117 -12 41 -33 94 -46 119 -32 63 -59 232 -60 375 0 109 2 125 26 175 42
89 125 161 356 313 152 100 282 222 459 433 106 126 161 195 428 543 134 173
131 157 34 207 -39 20 -48 29 -48 51 l0 26 68 -7 c37 -4 96 -9 132 -12 l65 -6
18 52 c26 73 103 150 179 178 32 12 105 31 163 42 109 22 202 51 365 115 229
89 226 89 355 90 66 1 154 7 195 13 41 6 121 12 177 12 119 0 176 -17 274 -82
l62 -42 -48 -13 c-29 -9 -44 -18 -38 -24 5 -5 128 -52 273 -104 419 -151 709
-261 832 -316 124 -54 149 -74 256 -208 l59 -74 -79 -61 c-116 -90 -175 -124
-226 -132 -74 -11 -210 2 -342 34 -69 17 -156 35 -195 41 -38 6 -82 14 -97 17
-20 4 -28 2 -28 -7 0 -34 126 -389 151 -425 59 -86 159 -130 317 -141 l92 -6
-95 93 c-74 73 -95 100 -95 121 l0 27 53 -13 c28 -7 114 -29 190 -49 76 -20
146 -36 156 -36 15 0 19 11 24 68 11 138 68 232 170 282 98 48 189 58 326 33
l34 -6 -5 267 c-5 244 -4 267 11 260 9 -4 88 -31 175 -61 88 -29 161 -55 163
-56 2 -2 -39 -20 -90 -41 -50 -20 -107 -45 -125 -54 l-32 -18 55 -67 c82 -99
133 -118 203 -75 19 12 75 56 124 98 74 65 122 94 295 183 187 97 295 143 378
161 28 6 33 3 52 -31 12 -21 35 -51 51 -66 l29 -28 194 40 c107 22 291 59 409
81 118 22 228 44 244 48 l30 7 -104 95 c-57 52 -133 122 -168 155 l-64 61 39
-3 c43 -4 142 17 348 71 145 39 216 43 254 14 15 -12 15 -11 1 7 -8 11 -66 80
-130 154 -1008 1176 -2263 2204 -3625 2968 -2035 1143 -4311 1732 -6650 1721
-181 0 -410 -4 -509 -9z m-1271 -1554 c61 -8 197 -27 302 -40 216 -28 364 -64
653 -158 l195 -63 3 -41 3 -40 -128 -13 c-593 -56 -686 -67 -648 -73 22 -4
182 -14 355 -23 173 -9 338 -19 367 -22 l52 -7 -45 -70 c-25 -38 -53 -86 -64
-106 l-19 -36 213 68 c379 121 530 151 756 151 145 1 222 -8 357 -39 l73 -17
-173 -88 c-428 -221 -694 -414 -883 -640 -86 -104 -159 -206 -152 -213 2 -2
71 -22 153 -44 l150 -39 -44 -18 c-24 -10 -64 -27 -88 -39 l-44 -20 155 -40
c86 -22 156 -43 156 -48 0 -4 -7 -22 -17 -40 -9 -17 -19 -43 -23 -57 l-6 -25
-199 -5 -199 -5 64 -75 c34 -41 99 -112 143 -156 47 -49 77 -87 72 -93 -3 -7
-31 -26 -61 -42 -30 -17 -54 -34 -54 -37 0 -4 34 -40 75 -82 l75 -75 -220
-159 c-163 -117 -220 -164 -220 -179 0 -11 24 -144 54 -296 30 -152 58 -300
62 -329 l7 -52 -49 20 c-27 12 -131 64 -231 117 -100 53 -185 95 -189 95 -14
-1 -107 -173 -98 -181 5 -5 86 -23 179 -40 94 -18 183 -34 198 -37 l29 -6 -24
-25 c-45 -50 -184 -146 -279 -193 -130 -66 -254 -107 -579 -196 -151 -41 -302
-88 -336 -104 -66 -32 -119 -79 -203 -180 -73 -89 -162 -162 -251 -209 -102
-53 -166 -71 -296 -81 -136 -10 -179 -21 -231 -59 -66 -48 -92 -114 -102 -259
l-8 -121 -61 -66 c-98 -108 -137 -195 -208 -475 -44 -175 -62 -218 -104 -253
-64 -54 -144 -31 -244 71 -50 51 -66 61 -105 67 -131 20 -292 107 -393 213
-105 110 -173 232 -286 512 -43 106 -93 211 -127 265 -172 273 -191 394 -99
636 28 76 54 104 104 114 110 22 160 67 160 140 0 53 -30 101 -114 185 l-76
74 -39 -38 c-22 -22 -38 -42 -36 -46 2 -4 34 -15 70 -25 36 -9 67 -21 70 -25
3 -5 -4 -25 -16 -45 -17 -28 -27 -35 -43 -31 -12 3 -76 12 -143 20 -172 21
-176 23 -168 55 4 14 20 58 37 98 34 83 78 128 135 139 35 7 248 -11 279 -23
8 -3 17 10 25 36 7 23 10 43 8 44 -2 2 -52 20 -110 40 -59 20 -188 68 -286
107 l-180 70 8 43 c13 66 10 198 -5 279 -35 185 -136 360 -300 523 -176 176
-253 204 -661 245 -220 21 -214 21 -498 -11 -130 -14 -163 -7 -253 56 -34 23
-79 45 -100 49 -58 11 -231 114 -214 128 3 2 97 17 210 32 232 32 323 47 317
52 -3 4 -549 124 -655 145 -37 7 -61 16 -59 23 6 18 98 84 162 115 59 29 190
70 418 130 198 52 316 107 431 201 30 25 55 47 56 50 0 3 -45 14 -101 24 -55
10 -138 28 -182 40 -72 20 -82 25 -85 47 -2 23 8 27 280 117 367 120 509 172
513 186 1 6 8 36 14 67 l12 56 87 6 c54 4 154 23 262 51 97 25 212 49 255 54
139 16 262 -11 363 -79 23 -16 47 -29 51 -29 13 0 21 27 21 66 0 19 3 34 7 34
9 0 306 -108 359 -131 25 -10 48 -19 50 -19 5 0 -91 154 -122 197 -13 17 -24
34 -24 36 0 2 55 -11 123 -29 67 -18 241 -64 386 -103 145 -39 273 -71 283
-71 10 0 18 6 18 14 0 9 -59 38 -157 77 l-156 62 23 19 c42 34 143 89 215 118
205 81 429 89 694 25 l101 -25 50 30 c106 62 232 107 376 135 102 19 480 13
639 -10z m-6200 -2589 c107 -28 175 -73 350 -231 206 -186 308 -247 671 -405
230 -100 329 -155 391 -216 71 -72 74 -93 31 -273 -10 -46 -16 -87 -11 -92 8
-8 274 -149 605 -322 109 -56 198 -106 198 -110 0 -5 -45 -62 -100 -127 -55
-65 -124 -153 -154 -194 l-55 -76 -202 166 c-111 91 -207 168 -214 170 -20 8
-45 -70 -45 -138 0 -90 27 -130 142 -209 188 -128 247 -219 214 -332 -9 -29
-29 -72 -46 -96 -25 -34 -35 -41 -52 -35 -12 3 -98 44 -192 90 -93 46 -175 84
-182 84 -6 0 -17 -6 -23 -13 -8 -10 -4 -19 19 -35 16 -12 69 -57 117 -99 49
-43 109 -95 133 -115 l45 -37 -21 -21 c-20 -20 -23 -20 -60 -6 -21 8 -118 40
-215 71 -244 77 -339 137 -446 282 -93 127 -191 182 -336 191 -71 4 -103 1
-171 -18 -75 -20 -98 -22 -201 -15 -112 7 -116 8 -109 29 25 82 89 151 158
171 29 9 91 15 148 15 67 0 108 5 127 14 16 9 59 61 101 123 79 117 188 261
214 282 14 12 13 17 -8 60 -86 170 -245 292 -398 308 l-63 7 -93 140 c-52 78
-104 154 -116 169 l-22 28 -55 -24 c-115 -52 -193 -62 -459 -62 -268 0 -380
13 -585 65 -167 42 -345 119 -345 148 0 8 128 31 185 33 21 1 24 3 10 6 -44
11 -259 74 -262 77 -13 12 -21 168 -13 228 28 196 146 309 350 338 63 9 190 4
190 -8 0 -2 -20 -52 -45 -111 -56 -134 -69 -190 -55 -241 10 -36 100 -182 119
-195 5 -3 -3 39 -16 93 -51 194 -33 266 91 359 171 128 327 127 479 -5 27 -23
50 -42 51 -42 2 0 -5 17 -15 38 -10 20 -20 52 -21 71 -3 33 0 36 37 47 54 17
169 17 230 0z"/>
<path d="M4829 23343 c-5 -15 -28 -75 -51 -133 -55 -141 -61 -215 -24 -296
l27 -58 159 159 c88 88 159 164 157 169 -3 9 -203 157 -240 177 -14 8 -19 5
-28 -18z"/>
<path d="M22070 18693 c-52 -20 -174 -65 -270 -100 -165 -62 -278 -111 -254
-113 6 0 62 -31 125 -68 63 -38 123 -71 134 -75 11 -5 15 -11 9 -16 -20 -18
-297 -122 -304 -114 -5 4 -22 43 -39 86 -48 121 -78 174 -122 217 -43 41 -129
80 -179 80 -36 0 -47 -16 -162 -237 -45 -87 -110 -204 -145 -260 -88 -141
-114 -202 -116 -266 -1 -70 24 -113 92 -154 69 -41 143 -56 255 -51 80 3 101
9 181 45 136 62 160 68 270 67 109 -2 169 -16 315 -77 106 -44 248 -73 401
-82 127 -7 166 2 214 49 35 36 35 112 -2 187 -34 71 -207 242 -372 369 -68 52
-132 102 -142 110 -17 14 -15 21 45 120 84 141 179 320 169 319 -4 -1 -51 -17
-103 -36z"/>
<path d="M23720 18594 c-81 -22 -160 -70 -307 -188 -111 -90 -134 -112 -148
-151 -12 -29 -16 -58 -12 -82 4 -21 81 -189 172 -373 156 -315 166 -338 165
-391 0 -44 -7 -69 -30 -110 -69 -125 -81 -156 -81 -219 -1 -97 53 -169 161
-214 56 -23 534 -106 545 -94 2 2 -37 161 -86 353 -49 193 -89 355 -89 361 0
17 102 34 199 34 l86 0 -85 48 c-119 67 -232 145 -263 181 -14 17 -58 84 -98
148 -40 65 -92 146 -116 180 l-43 61 152 144 c84 79 179 168 212 199 l60 57
-33 16 c-52 28 -180 56 -245 55 -34 0 -86 -7 -116 -15z"/>
<path d="M1570 16410 c0 -6 -9 -118 -20 -248 -60 -727 -65 -1439 -14 -2147
283 -3948 2284 -7557 5494 -9913 182 -134 561 -394 566 -389 9 9 45 305 53
437 14 213 41 347 147 721 124 441 159 697 254 1884 22 275 50 601 62 724 24
253 20 326 -25 424 -43 94 -104 150 -235 213 -295 144 -443 325 -622 759 -125
302 -156 366 -328 670 -193 342 -221 406 -222 506 0 93 22 150 87 219 l55 59
-25 63 c-39 98 -50 147 -50 228 -1 135 35 214 191 422 244 325 283 447 228
711 -24 116 -102 372 -127 418 -9 18 -78 59 -97 59 -6 0 -37 -37 -71 -82 -33
-46 -74 -99 -90 -118 l-30 -35 -45 23 c-113 60 -477 303 -564 377 -37 32 -42
43 -61 126 -44 189 -159 299 -479 458 -167 82 -189 97 -351 234 -68 57 -149
120 -179 138 -53 32 -61 34 -127 30 -38 -3 -131 -5 -205 -5 -172 -1 -223 14
-460 135 -187 95 -612 364 -667 423 -37 40 -80 164 -113 331 -53 265 -50 260
-495 820 -304 383 -338 432 -389 562 -56 141 -75 170 -166 252 -67 60 -72 62
-99 51 -16 -6 -41 -24 -55 -39 l-27 -28 114 -209 c106 -195 408 -764 543
-1023 32 -63 55 -116 49 -118 -5 -2 -23 -11 -40 -21 l-30 -19 -72 140 c-88
169 -158 276 -250 380 -178 203 -181 208 -323 544 -176 417 -262 557 -456 744
-56 54 -81 70 -134 87 -36 11 -73 24 -82 27 -11 4 -18 2 -18 -5z"/>
<path d="M7697 3933 c-9 -15 -69 -244 -66 -247 27 -21 101 -67 104 -64 2 2 11
60 20 128 9 69 18 135 21 147 4 15 0 25 -14 32 -24 13 -59 14 -65 4z"/>
</g>
</svg>
